# Low poly ocean sphere with UVs
o earth_ocean
v 0.000000 1.500000 0.000000
v 0.000000 1.500000 0.000000
v 0.000000 1.500000 0.000000
v 0.000000 1.500000 0.000000
v 0.000000 1.500000 0.000000
v 0.000000 1.500000 0.000000
v -0.000000 1.500000 0.000000
v -0.000000 1.500000 0.000000
v -0.000000 1.500000 0.000000
v -0.000000 1.500000 0.000000
v -0.000000 1.500000 0.000000
v -0.000000 1.500000 -0.000000
v -0.000000 1.500000 -0.000000
v -0.000000 1.500000 -0.000000
v -0.000000 1.500000 -0.000000
v -0.000000 1.500000 -0.000000
v 0.000000 1.500000 -0.000000
v 0.000000 1.500000 -0.000000
v 0.000000 1.500000 -0.000000
v 0.000000 1.500000 -0.000000
v 0.463525 1.426585 0.000000
v 0.440839 1.426585 0.143237
v 0.375000 1.426585 0.272453
v 0.272453 1.426585 0.375000
v 0.143237 1.426585 0.440839
v 0.000000 1.426585 0.463525
v -0.143237 1.426585 0.440839
v -0.272453 1.426585 0.375000
v -0.375000 1.426585 0.272453
v -0.440839 1.426585 0.143237
v -0.463525 1.426585 0.000000
v -0.440839 1.426585 -0.143237
v -0.375000 1.426585 -0.272453
v -0.272453 1.426585 -0.375000
v -0.143237 1.426585 -0.440839
v -0.000000 1.426585 -0.463525
v 0.143237 1.426585 -0.440839
v 0.272453 1.426585 -0.375000
v 0.375000 1.426585 -0.272453
v 0.440839 1.426585 -0.143237
v 0.881678 1.213525 0.000000
v 0.838525 1.213525 0.272453
v 0.713292 1.213525 0.518237
v 0.518237 1.213525 0.713292
v 0.272453 1.213525 0.838525
v 0.000000 1.213525 0.881678
v -0.272453 1.213525 0.838525
v -0.518237 1.213525 0.713292
v -0.713292 1.213525 0.518237
v -0.838525 1.213525 0.272453
v -0.881678 1.213525 0.000000
v -0.838525 1.213525 -0.272453
v -0.713292 1.213525 -0.518237
v -0.518237 1.213525 -0.713292
v -0.272453 1.213525 -0.838525
v -0.000000 1.213525 -0.881678
v 0.272453 1.213525 -0.838525
v 0.518237 1.213525 -0.713292
v 0.713292 1.213525 -0.518237
v 0.838525 1.213525 -0.272453
v 1.213525 0.881678 0.000000
v 1.154131 0.881678 0.375000
v 0.981763 0.881678 0.713292
v 0.713292 0.881678 0.981763
v 0.375000 0.881678 1.154131
v 0.000000 0.881678 1.213525
v -0.375000 0.881678 1.154131
v -0.713292 0.881678 0.981763
v -0.981763 0.881678 0.713292
v -1.154131 0.881678 0.375000
v -1.213525 0.881678 0.000000
v -1.154131 0.881678 -0.375000
v -0.981763 0.881678 -0.713292
v -0.713292 0.881678 -0.981763
v -0.375000 0.881678 -1.154131
v -0.000000 0.881678 -1.213525
v 0.375000 0.881678 -1.154131
v 0.713292 0.881678 -0.981763
v 0.981763 0.881678 -0.713292
v 1.154131 0.881678 -0.375000
v 1.426585 0.463525 0.000000
v 1.356763 0.463525 0.440839
v 1.154131 0.463525 0.838525
v 0.838525 0.463525 1.154131
v 0.440839 0.463525 1.356763
v 0.000000 0.463525 1.426585
v -0.440839 0.463525 1.356763
v -0.838525 0.463525 1.154131
v -1.154131 0.463525 0.838525
v -1.356763 0.463525 0.440839
v -1.426585 0.463525 0.000000
v -1.356763 0.463525 -0.440839
v -1.154131 0.463525 -0.838525
v -0.838525 0.463525 -1.154131
v -0.440839 0.463525 -1.356763
v -0.000000 0.463525 -1.426585
v 0.440839 0.463525 -1.356763
v 0.838525 0.463525 -1.154131
v 1.154131 0.463525 -0.838525
v 1.356763 0.463525 -0.440839
v 1.500000 0.000000 0.000000
v 1.426585 0.000000 0.463525
v 1.213525 0.000000 0.881678
v 0.881678 0.000000 1.213525
v 0.463525 0.000000 1.426585
v 0.000000 0.000000 1.500000
v -0.463525 0.000000 1.426585
v -0.881678 0.000000 1.213525
v -1.213525 0.000000 0.881678
v -1.426585 0.000000 0.463525
v -1.500000 0.000000 0.000000
v -1.426585 0.000000 -0.463525
v -1.213525 0.000000 -0.881678
v -0.881678 0.000000 -1.213525
v -0.463525 0.000000 -1.426585
v -0.000000 0.000000 -1.500000
v 0.463525 0.000000 -1.426585
v 0.881678 0.000000 -1.213525
v 1.213525 0.000000 -0.881678
v 1.426585 0.000000 -0.463525
v 1.426585 -0.463525 0.000000
v 1.356763 -0.463525 0.440839
v 1.154131 -0.463525 0.838525
v 0.838525 -0.463525 1.154131
v 0.440839 -0.463525 1.356763
v 0.000000 -0.463525 1.426585
v -0.440839 -0.463525 1.356763
v -0.838525 -0.463525 1.154131
v -1.154131 -0.463525 0.838525
v -1.356763 -0.463525 0.440839
v -1.426585 -0.463525 0.000000
v -1.356763 -0.463525 -0.440839
v -1.154131 -0.463525 -0.838525
v -0.838525 -0.463525 -1.154131
v -0.440839 -0.463525 -1.356763
v -0.000000 -0.463525 -1.426585
v 0.440839 -0.463525 -1.356763
v 0.838525 -0.463525 -1.154131
v 1.154131 -0.463525 -0.838525
v 1.356763 -0.463525 -0.440839
v 1.213525 -0.881678 0.000000
v 1.154131 -0.881678 0.375000
v 0.981763 -0.881678 0.713292
v 0.713292 -0.881678 0.981763
v 0.375000 -0.881678 1.154131
v 0.000000 -0.881678 1.213525
v -0.375000 -0.881678 1.154131
v -0.713292 -0.881678 0.981763
v -0.981763 -0.881678 0.713292
v -1.154131 -0.881678 0.375000
v -1.213525 -0.881678 0.000000
v -1.154131 -0.881678 -0.375000
v -0.981763 -0.881678 -0.713292
v -0.713292 -0.881678 -0.981763
v -0.375000 -0.881678 -1.154131
v -0.000000 -0.881678 -1.213525
v 0.375000 -0.881678 -1.154131
v 0.713292 -0.881678 -0.981763
v 0.981763 -0.881678 -0.713292
v 1.154131 -0.881678 -0.375000
v 0.881678 -1.213525 0.000000
v 0.838525 -1.213525 0.272453
v 0.713292 -1.213525 0.518237
v 0.518237 -1.213525 0.713292
v 0.272453 -1.213525 0.838525
v 0.000000 -1.213525 0.881678
v -0.272453 -1.213525 0.838525
v -0.518237 -1.213525 0.713292
v -0.713292 -1.213525 0.518237
v -0.838525 -1.213525 0.272453
v -0.881678 -1.213525 0.000000
v -0.838525 -1.213525 -0.272453
v -0.713292 -1.213525 -0.518237
v -0.518237 -1.213525 -0.713292
v -0.272453 -1.213525 -0.838525
v -0.000000 -1.213525 -0.881678
v 0.272453 -1.213525 -0.838525
v 0.518237 -1.213525 -0.713292
v 0.713292 -1.213525 -0.518237
v 0.838525 -1.213525 -0.272453
v 0.463525 -1.426585 0.000000
v 0.440839 -1.426585 0.143237
v 0.375000 -1.426585 0.272453
v 0.272453 -1.426585 0.375000
v 0.143237 -1.426585 0.440839
v 0.000000 -1.426585 0.463525
v -0.143237 -1.426585 0.440839
v -0.272453 -1.426585 0.375000
v -0.375000 -1.426585 0.272453
v -0.440839 -1.426585 0.143237
v -0.463525 -1.426585 0.000000
v -0.440839 -1.426585 -0.143237
v -0.375000 -1.426585 -0.272453
v -0.272453 -1.426585 -0.375000
v -0.143237 -1.426585 -0.440839
v -0.000000 -1.426585 -0.463525
v 0.143237 -1.426585 -0.440839
v 0.272453 -1.426585 -0.375000
v 0.375000 -1.426585 -0.272453
v 0.440839 -1.426585 -0.143237
v 0.000000 -1.500000 0.000000
v 0.000000 -1.500000 0.000000
v 0.000000 -1.500000 0.000000
v 0.000000 -1.500000 0.000000
v 0.000000 -1.500000 0.000000
v 0.000000 -1.500000 0.000000
v -0.000000 -1.500000 0.000000
v -0.000000 -1.500000 0.000000
v -0.000000 -1.500000 0.000000
v -0.000000 -1.500000 0.000000
v -0.000000 -1.500000 0.000000
v -0.000000 -1.500000 -0.000000
v -0.000000 -1.500000 -0.000000
v -0.000000 -1.500000 -0.000000
v -0.000000 -1.500000 -0.000000
v -0.000000 -1.500000 -0.000000
v 0.000000 -1.500000 -0.000000
v 0.000000 -1.500000 -0.000000
v 0.000000 -1.500000 -0.000000
v 0.000000 -1.500000 -0.000000
vt 0.000000 0.000000
vt 0.050000 0.000000
vt 0.100000 0.000000
vt 0.150000 0.000000
vt 0.200000 0.000000
vt 0.250000 0.000000
vt 0.300000 0.000000
vt 0.350000 0.000000
vt 0.400000 0.000000
vt 0.450000 0.000000
vt 0.500000 0.000000
vt 0.550000 0.000000
vt 0.600000 0.000000
vt 0.650000 0.000000
vt 0.700000 0.000000
vt 0.750000 0.000000
vt 0.800000 0.000000
vt 0.850000 0.000000
vt 0.900000 0.000000
vt 0.950000 0.000000
vt 0.000000 0.100000
vt 0.050000 0.100000
vt 0.100000 0.100000
vt 0.150000 0.100000
vt 0.200000 0.100000
vt 0.250000 0.100000
vt 0.300000 0.100000
vt 0.350000 0.100000
vt 0.400000 0.100000
vt 0.450000 0.100000
vt 0.500000 0.100000
vt 0.550000 0.100000
vt 0.600000 0.100000
vt 0.650000 0.100000
vt 0.700000 0.100000
vt 0.750000 0.100000
vt 0.800000 0.100000
vt 0.850000 0.100000
vt 0.900000 0.100000
vt 0.950000 0.100000
vt 0.000000 0.200000
vt 0.050000 0.200000
vt 0.100000 0.200000
vt 0.150000 0.200000
vt 0.200000 0.200000
vt 0.250000 0.200000
vt 0.300000 0.200000
vt 0.350000 0.200000
vt 0.400000 0.200000
vt 0.450000 0.200000
vt 0.500000 0.200000
vt 0.550000 0.200000
vt 0.600000 0.200000
vt 0.650000 0.200000
vt 0.700000 0.200000
vt 0.750000 0.200000
vt 0.800000 0.200000
vt 0.850000 0.200000
vt 0.900000 0.200000
vt 0.950000 0.200000
vt 0.000000 0.300000
vt 0.050000 0.300000
vt 0.100000 0.300000
vt 0.150000 0.300000
vt 0.200000 0.300000
vt 0.250000 0.300000
vt 0.300000 0.300000
vt 0.350000 0.300000
vt 0.400000 0.300000
vt 0.450000 0.300000
vt 0.500000 0.300000
vt 0.550000 0.300000
vt 0.600000 0.300000
vt 0.650000 0.300000
vt 0.700000 0.300000
vt 0.750000 0.300000
vt 0.800000 0.300000
vt 0.850000 0.300000
vt 0.900000 0.300000
vt 0.950000 0.300000
vt 0.000000 0.400000
vt 0.050000 0.400000
vt 0.100000 0.400000
vt 0.150000 0.400000
vt 0.200000 0.400000
vt 0.250000 0.400000
vt 0.300000 0.400000
vt 0.350000 0.400000
vt 0.400000 0.400000
vt 0.450000 0.400000
vt 0.500000 0.400000
vt 0.550000 0.400000
vt 0.600000 0.400000
vt 0.650000 0.400000
vt 0.700000 0.400000
vt 0.750000 0.400000
vt 0.800000 0.400000
vt 0.850000 0.400000
vt 0.900000 0.400000
vt 0.950000 0.400000
vt 0.000000 0.500000
vt 0.050000 0.500000
vt 0.100000 0.500000
vt 0.150000 0.500000
vt 0.200000 0.500000
vt 0.250000 0.500000
vt 0.300000 0.500000
vt 0.350000 0.500000
vt 0.400000 0.500000
vt 0.450000 0.500000
vt 0.500000 0.500000
vt 0.550000 0.500000
vt 0.600000 0.500000
vt 0.650000 0.500000
vt 0.700000 0.500000
vt 0.750000 0.500000
vt 0.800000 0.500000
vt 0.850000 0.500000
vt 0.900000 0.500000
vt 0.950000 0.500000
vt 0.000000 0.600000
vt 0.050000 0.600000
vt 0.100000 0.600000
vt 0.150000 0.600000
vt 0.200000 0.600000
vt 0.250000 0.600000
vt 0.300000 0.600000
vt 0.350000 0.600000
vt 0.400000 0.600000
vt 0.450000 0.600000
vt 0.500000 0.600000
vt 0.550000 0.600000
vt 0.600000 0.600000
vt 0.650000 0.600000
vt 0.700000 0.600000
vt 0.750000 0.600000
vt 0.800000 0.600000
vt 0.850000 0.600000
vt 0.900000 0.600000
vt 0.950000 0.600000
vt 0.000000 0.700000
vt 0.050000 0.700000
vt 0.100000 0.700000
vt 0.150000 0.700000
vt 0.200000 0.700000
vt 0.250000 0.700000
vt 0.300000 0.700000
vt 0.350000 0.700000
vt 0.400000 0.700000
vt 0.450000 0.700000
vt 0.500000 0.700000
vt 0.550000 0.700000
vt 0.600000 0.700000
vt 0.650000 0.700000
vt 0.700000 0.700000
vt 0.750000 0.700000
vt 0.800000 0.700000
vt 0.850000 0.700000
vt 0.900000 0.700000
vt 0.950000 0.700000
vt 0.000000 0.800000
vt 0.050000 0.800000
vt 0.100000 0.800000
vt 0.150000 0.800000
vt 0.200000 0.800000
vt 0.250000 0.800000
vt 0.300000 0.800000
vt 0.350000 0.800000
vt 0.400000 0.800000
vt 0.450000 0.800000
vt 0.500000 0.800000
vt 0.550000 0.800000
vt 0.600000 0.800000
vt 0.650000 0.800000
vt 0.700000 0.800000
vt 0.750000 0.800000
vt 0.800000 0.800000
vt 0.850000 0.800000
vt 0.900000 0.800000
vt 0.950000 0.800000
vt 0.000000 0.900000
vt 0.050000 0.900000
vt 0.100000 0.900000
vt 0.150000 0.900000
vt 0.200000 0.900000
vt 0.250000 0.900000
vt 0.300000 0.900000
vt 0.350000 0.900000
vt 0.400000 0.900000
vt 0.450000 0.900000
vt 0.500000 0.900000
vt 0.550000 0.900000
vt 0.600000 0.900000
vt 0.650000 0.900000
vt 0.700000 0.900000
vt 0.750000 0.900000
vt 0.800000 0.900000
vt 0.850000 0.900000
vt 0.900000 0.900000
vt 0.950000 0.900000
vt 0.000000 1.000000
vt 0.050000 1.000000
vt 0.100000 1.000000
vt 0.150000 1.000000
vt 0.200000 1.000000
vt 0.250000 1.000000
vt 0.300000 1.000000
vt 0.350000 1.000000
vt 0.400000 1.000000
vt 0.450000 1.000000
vt 0.500000 1.000000
vt 0.550000 1.000000
vt 0.600000 1.000000
vt 0.650000 1.000000
vt 0.700000 1.000000
vt 0.750000 1.000000
vt 0.800000 1.000000
vt 0.850000 1.000000
vt 0.900000 1.000000
vt 0.950000 1.000000
vn 0.000000 1.000000 0.000000
vn 0.000000 1.000000 0.000000
vn 0.000000 1.000000 0.000000
vn 0.000000 1.000000 0.000000
vn 0.000000 1.000000 0.000000
vn 0.000000 1.000000 0.000000
vn -0.000000 1.000000 0.000000
vn -0.000000 1.000000 0.000000
vn -0.000000 1.000000 0.000000
vn -0.000000 1.000000 0.000000
vn -0.000000 1.000000 0.000000
vn -0.000000 1.000000 -0.000000
vn -0.000000 1.000000 -0.000000
vn -0.000000 1.000000 -0.000000
vn -0.000000 1.000000 -0.000000
vn -0.000000 1.000000 -0.000000
vn 0.000000 1.000000 -0.000000
vn 0.000000 1.000000 -0.000000
vn 0.000000 1.000000 -0.000000
vn 0.000000 1.000000 -0.000000
vn 0.309017 0.951057 0.000000
vn 0.293893 0.951057 0.095492
vn 0.250000 0.951057 0.181636
vn 0.181636 0.951057 0.250000
vn 0.095492 0.951057 0.293893
vn 0.000000 0.951057 0.309017
vn -0.095492 0.951057 0.293893
vn -0.181636 0.951057 0.250000
vn -0.250000 0.951057 0.181636
vn -0.293893 0.951057 0.095492
vn -0.309017 0.951057 0.000000
vn -0.293893 0.951057 -0.095492
vn -0.250000 0.951057 -0.181636
vn -0.181636 0.951057 -0.250000
vn -0.095492 0.951057 -0.293893
vn -0.000000 0.951057 -0.309017
vn 0.095492 0.951057 -0.293893
vn 0.181636 0.951057 -0.250000
vn 0.250000 0.951057 -0.181636
vn 0.293893 0.951057 -0.095492
vn 0.587785 0.809017 0.000000
vn 0.559017 0.809017 0.181636
vn 0.475528 0.809017 0.345492
vn 0.345492 0.809017 0.475528
vn 0.181636 0.809017 0.559017
vn 0.000000 0.809017 0.587785
vn -0.181636 0.809017 0.559017
vn -0.345492 0.809017 0.475528
vn -0.475528 0.809017 0.345492
vn -0.559017 0.809017 0.181636
vn -0.587785 0.809017 0.000000
vn -0.559017 0.809017 -0.181636
vn -0.475528 0.809017 -0.345492
vn -0.345492 0.809017 -0.475528
vn -0.181636 0.809017 -0.559017
vn -0.000000 0.809017 -0.587785
vn 0.181636 0.809017 -0.559017
vn 0.345492 0.809017 -0.475528
vn 0.475528 0.809017 -0.345492
vn 0.559017 0.809017 -0.181636
vn 0.809017 0.587785 0.000000
vn 0.769421 0.587785 0.250000
vn 0.654508 0.587785 0.475528
vn 0.475528 0.587785 0.654508
vn 0.250000 0.587785 0.769421
vn 0.000000 0.587785 0.809017
vn -0.250000 0.587785 0.769421
vn -0.475528 0.587785 0.654508
vn -0.654508 0.587785 0.475528
vn -0.769421 0.587785 0.250000
vn -0.809017 0.587785 0.000000
vn -0.769421 0.587785 -0.250000
vn -0.654508 0.587785 -0.475528
vn -0.475528 0.587785 -0.654508
vn -0.250000 0.587785 -0.769421
vn -0.000000 0.587785 -0.809017
vn 0.250000 0.587785 -0.769421
vn 0.475528 0.587785 -0.654508
vn 0.654508 0.587785 -0.475528
vn 0.769421 0.587785 -0.250000
vn 0.951057 0.309017 0.000000
vn 0.904508 0.309017 0.293893
vn 0.769421 0.309017 0.559017
vn 0.559017 0.309017 0.769421
vn 0.293893 0.309017 0.904508
vn 0.000000 0.309017 0.951057
vn -0.293893 0.309017 0.904508
vn -0.559017 0.309017 0.769421
vn -0.769421 0.309017 0.559017
vn -0.904508 0.309017 0.293893
vn -0.951057 0.309017 0.000000
vn -0.904508 0.309017 -0.293893
vn -0.769421 0.309017 -0.559017
vn -0.559017 0.309017 -0.769421
vn -0.293893 0.309017 -0.904508
vn -0.000000 0.309017 -0.951057
vn 0.293893 0.309017 -0.904508
vn 0.559017 0.309017 -0.769421
vn 0.769421 0.309017 -0.559017
vn 0.904508 0.309017 -0.293893
vn 1.000000 0.000000 0.000000
vn 0.951057 0.000000 0.309017
vn 0.809017 0.000000 0.587785
vn 0.587785 0.000000 0.809017
vn 0.309017 0.000000 0.951057
vn 0.000000 0.000000 1.000000
vn -0.309017 0.000000 0.951057
vn -0.587785 0.000000 0.809017
vn -0.809017 0.000000 0.587785
vn -0.951057 0.000000 0.309017
vn -1.000000 0.000000 0.000000
vn -0.951057 0.000000 -0.309017
vn -0.809017 0.000000 -0.587785
vn -0.587785 0.000000 -0.809017
vn -0.309017 0.000000 -0.951057
vn -0.000000 0.000000 -1.000000
vn 0.309017 0.000000 -0.951057
vn 0.587785 0.000000 -0.809017
vn 0.809017 0.000000 -0.587785
vn 0.951057 0.000000 -0.309017
vn 0.951057 -0.309017 0.000000
vn 0.904508 -0.309017 0.293893
vn 0.769421 -0.309017 0.559017
vn 0.559017 -0.309017 0.769421
vn 0.293893 -0.309017 0.904508
vn 0.000000 -0.309017 0.951057
vn -0.293893 -0.309017 0.904508
vn -0.559017 -0.309017 0.769421
vn -0.769421 -0.309017 0.559017
vn -0.904508 -0.309017 0.293893
vn -0.951057 -0.309017 0.000000
vn -0.904508 -0.309017 -0.293893
vn -0.769421 -0.309017 -0.559017
vn -0.559017 -0.309017 -0.769421
vn -0.293893 -0.309017 -0.904508
vn -0.000000 -0.309017 -0.951057
vn 0.293893 -0.309017 -0.904508
vn 0.559017 -0.309017 -0.769421
vn 0.769421 -0.309017 -0.559017
vn 0.904508 -0.309017 -0.293893
vn 0.809017 -0.587785 0.000000
vn 0.769421 -0.587785 0.250000
vn 0.654508 -0.587785 0.475528
vn 0.475528 -0.587785 0.654508
vn 0.250000 -0.587785 0.769421
vn 0.000000 -0.587785 0.809017
vn -0.250000 -0.587785 0.769421
vn -0.475528 -0.587785 0.654508
vn -0.654508 -0.587785 0.475528
vn -0.769421 -0.587785 0.250000
vn -0.809017 -0.587785 0.000000
vn -0.769421 -0.587785 -0.250000
vn -0.654508 -0.587785 -0.475528
vn -0.475528 -0.587785 -0.654508
vn -0.250000 -0.587785 -0.769421
vn -0.000000 -0.587785 -0.809017
vn 0.250000 -0.587785 -0.769421
vn 0.475528 -0.587785 -0.654508
vn 0.654508 -0.587785 -0.475528
vn 0.769421 -0.587785 -0.250000
vn 0.587785 -0.809017 0.000000
vn 0.559017 -0.809017 0.181636
vn 0.475528 -0.809017 0.345492
vn 0.345492 -0.809017 0.475528
vn 0.181636 -0.809017 0.559017
vn 0.000000 -0.809017 0.587785
vn -0.181636 -0.809017 0.559017
vn -0.345492 -0.809017 0.475528
vn -0.475528 -0.809017 0.345492
vn -0.559017 -0.809017 0.181636
vn -0.587785 -0.809017 0.000000
vn -0.559017 -0.809017 -0.181636
vn -0.475528 -0.809017 -0.345492
vn -0.345492 -0.809017 -0.475528
vn -0.181636 -0.809017 -0.559017
vn -0.000000 -0.809017 -0.587785
vn 0.181636 -0.809017 -0.559017
vn 0.345492 -0.809017 -0.475528
vn 0.475528 -0.809017 -0.345492
vn 0.559017 -0.809017 -0.181636
vn 0.309017 -0.951057 0.000000
vn 0.293893 -0.951057 0.095492
vn 0.250000 -0.951057 0.181636
vn 0.181636 -0.951057 0.250000
vn 0.095492 -0.951057 0.293893
vn 0.000000 -0.951057 0.309017
vn -0.095492 -0.951057 0.293893
vn -0.181636 -0.951057 0.250000
vn -0.250000 -0.951057 0.181636
vn -0.293893 -0.951057 0.095492
vn -0.309017 -0.951057 0.000000
vn -0.293893 -0.951057 -0.095492
vn -0.250000 -0.951057 -0.181636
vn -0.181636 -0.951057 -0.250000
vn -0.095492 -0.951057 -0.293893
vn -0.000000 -0.951057 -0.309017
vn 0.095492 -0.951057 -0.293893
vn 0.181636 -0.951057 -0.250000
vn 0.250000 -0.951057 -0.181636
vn 0.293893 -0.951057 -0.095492
vn 0.000000 -1.000000 0.000000
vn 0.000000 -1.000000 0.000000
vn 0.000000 -1.000000 0.000000
vn 0.000000 -1.000000 0.000000
vn 0.000000 -1.000000 0.000000
vn 0.000000 -1.000000 0.000000
vn -0.000000 -1.000000 0.000000
vn -0.000000 -1.000000 0.000000
vn -0.000000 -1.000000 0.000000
vn -0.000000 -1.000000 0.000000
vn -0.000000 -1.000000 0.000000
vn -0.000000 -1.000000 -0.000000
vn -0.000000 -1.000000 -0.000000
vn -0.000000 -1.000000 -0.000000
vn -0.000000 -1.000000 -0.000000
vn -0.000000 -1.000000 -0.000000
vn 0.000000 -1.000000 -0.000000
vn 0.000000 -1.000000 -0.000000
vn 0.000000 -1.000000 -0.000000
vn 0.000000 -1.000000 -0.000000
s off
f 2/2/2 22/22/22 21/21/21
f 3/3/3 23/23/23 22/22/22
f 4/4/4 24/24/24 23/23/23
f 5/5/5 25/25/25 24/24/24
f 6/6/6 26/26/26 25/25/25
f 7/7/7 27/27/27 26/26/26
f 8/8/8 28/28/28 27/27/27
f 9/9/9 29/29/29 28/28/28
f 10/10/10 30/30/30 29/29/29
f 11/11/11 31/31/31 30/30/30
f 12/12/12 32/32/32 31/31/31
f 13/13/13 33/33/33 32/32/32
f 14/14/14 34/34/34 33/33/33
f 15/15/15 35/35/35 34/34/34
f 16/16/16 36/36/36 35/35/35
f 17/17/17 37/37/37 36/36/36
f 18/18/18 38/38/38 37/37/37
f 19/19/19 39/39/39 38/38/38
f 20/20/20 40/40/40 39/39/39
f 1/1/1 21/21/21 40/40/40
f 21/21/21 22/22/22 41/41/41
f 22/22/22 42/42/42 41/41/41
f 22/22/22 23/23/23 42/42/42
f 23/23/23 43/43/43 42/42/42
f 23/23/23 24/24/24 43/43/43
f 24/24/24 44/44/44 43/43/43
f 24/24/24 25/25/25 44/44/44
f 25/25/25 45/45/45 44/44/44
f 25/25/25 26/26/26 45/45/45
f 26/26/26 46/46/46 45/45/45
f 26/26/26 27/27/27 46/46/46
f 27/27/27 47/47/47 46/46/46
f 27/27/27 28/28/28 47/47/47
f 28/28/28 48/48/48 47/47/47
f 28/28/28 29/29/29 48/48/48
f 29/29/29 49/49/49 48/48/48
f 29/29/29 30/30/30 49/49/49
f 30/30/30 50/50/50 49/49/49
f 30/30/30 31/31/31 50/50/50
f 31/31/31 51/51/51 50/50/50
f 31/31/31 32/32/32 51/51/51
f 32/32/32 52/52/52 51/51/51
f 32/32/32 33/33/33 52/52/52
f 33/33/33 53/53/53 52/52/52
f 33/33/33 34/34/34 53/53/53
f 34/34/34 54/54/54 53/53/53
f 34/34/34 35/35/35 54/54/54
f 35/35/35 55/55/55 54/54/54
f 35/35/35 36/36/36 55/55/55
f 36/36/36 56/56/56 55/55/55
f 36/36/36 37/37/37 56/56/56
f 37/37/37 57/57/57 56/56/56
f 37/37/37 38/38/38 57/57/57
f 38/38/38 58/58/58 57/57/57
f 38/38/38 39/39/39 58/58/58
f 39/39/39 59/59/59 58/58/58
f 39/39/39 40/40/40 59/59/59
f 40/40/40 60/60/60 59/59/59
f 40/40/40 21/21/21 60/60/60
f 21/21/21 41/41/41 60/60/60
f 41/41/41 42/42/42 61/61/61
f 42/42/42 62/62/62 61/61/61
f 42/42/42 43/43/43 62/62/62
f 43/43/43 63/63/63 62/62/62
f 43/43/43 44/44/44 63/63/63
f 44/44/44 64/64/64 63/63/63
f 44/44/44 45/45/45 64/64/64
f 45/45/45 65/65/65 64/64/64
f 45/45/45 46/46/46 65/65/65
f 46/46/46 66/66/66 65/65/65
f 46/46/46 47/47/47 66/66/66
f 47/47/47 67/67/67 66/66/66
f 47/47/47 48/48/48 67/67/67
f 48/48/48 68/68/68 67/67/67
f 48/48/48 49/49/49 68/68/68
f 49/49/49 69/69/69 68/68/68
f 49/49/49 50/50/50 69/69/69
f 50/50/50 70/70/70 69/69/69
f 50/50/50 51/51/51 70/70/70
f 51/51/51 71/71/71 70/70/70
f 51/51/51 52/52/52 71/71/71
f 52/52/52 72/72/72 71/71/71
f 52/52/52 53/53/53 72/72/72
f 53/53/53 73/73/73 72/72/72
f 53/53/53 54/54/54 73/73/73
f 54/54/54 74/74/74 73/73/73
f 54/54/54 55/55/55 74/74/74
f 55/55/55 75/75/75 74/74/74
f 55/55/55 56/56/56 75/75/75
f 56/56/56 76/76/76 75/75/75
f 56/56/56 57/57/57 76/76/76
f 57/57/57 77/77/77 76/76/76
f 57/57/57 58/58/58 77/77/77
f 58/58/58 78/78/78 77/77/77
f 58/58/58 59/59/59 78/78/78
f 59/59/59 79/79/79 78/78/78
f 59/59/59 60/60/60 79/79/79
f 60/60/60 80/80/80 79/79/79
f 60/60/60 41/41/41 80/80/80
f 41/41/41 61/61/61 80/80/80
f 61/61/61 62/62/62 81/81/81
f 62/62/62 82/82/82 81/81/81
f 62/62/62 63/63/63 82/82/82
f 63/63/63 83/83/83 82/82/82
f 63/63/63 64/64/64 83/83/83
f 64/64/64 84/84/84 83/83/83
f 64/64/64 65/65/65 84/84/84
f 65/65/65 85/85/85 84/84/84
f 65/65/65 66/66/66 85/85/85
f 66/66/66 86/86/86 85/85/85
f 66/66/66 67/67/67 86/86/86
f 67/67/67 87/87/87 86/86/86
f 67/67/67 68/68/68 87/87/87
f 68/68/68 88/88/88 87/87/87
f 68/68/68 69/69/69 88/88/88
f 69/69/69 89/89/89 88/88/88
f 69/69/69 70/70/70 89/89/89
f 70/70/70 90/90/90 89/89/89
f 70/70/70 71/71/71 90/90/90
f 71/71/71 91/91/91 90/90/90
f 71/71/71 72/72/72 91/91/91
f 72/72/72 92/92/92 91/91/91
f 72/72/72 73/73/73 92/92/92
f 73/73/73 93/93/93 92/92/92
f 73/73/73 74/74/74 93/93/93
f 74/74/74 94/94/94 93/93/93
f 74/74/74 75/75/75 94/94/94
f 75/75/75 95/95/95 94/94/94
f 75/75/75 76/76/76 95/95/95
f 76/76/76 96/96/96 95/95/95
f 76/76/76 77/77/77 96/96/96
f 77/77/77 97/97/97 96/96/96
f 77/77/77 78/78/78 97/97/97
f 78/78/78 98/98/98 97/97/97
f 78/78/78 79/79/79 98/98/98
f 79/79/79 99/99/99 98/98/98
f 79/79/79 80/80/80 99/99/99
f 80/80/80 100/100/100 99/99/99
f 80/80/80 61/61/61 100/100/100
f 61/61/61 81/81/81 100/100/100
f 81/81/81 82/82/82 101/101/101
f 82/82/82 102/102/102 101/101/101
f 82/82/82 83/83/83 102/102/102
f 83/83/83 103/103/103 102/102/102
f 83/83/83 84/84/84 103/103/103
f 84/84/84 104/104/104 103/103/103
f 84/84/84 85/85/85 104/104/104
f 85/85/85 105/105/105 104/104/104
f 85/85/85 86/86/86 105/105/105
f 86/86/86 106/106/106 105/105/105
f 86/86/86 87/87/87 106/106/106
f 87/87/87 107/107/107 106/106/106
f 87/87/87 88/88/88 107/107/107
f 88/88/88 108/108/108 107/107/107
f 88/88/88 89/89/89 108/108/108
f 89/89/89 109/109/109 108/108/108
f 89/89/89 90/90/90 109/109/109
f 90/90/90 110/110/110 109/109/109
f 90/90/90 91/91/91 110/110/110
f 91/91/91 111/111/111 110/110/110
f 91/91/91 92/92/92 111/111/111
f 92/92/92 112/112/112 111/111/111
f 92/92/92 93/93/93 112/112/112
f 93/93/93 113/113/113 112/112/112
f 93/93/93 94/94/94 113/113/113
f 94/94/94 114/114/114 113/113/113
f 94/94/94 95/95/95 114/114/114
f 95/95/95 115/115/115 114/114/114
f 95/95/95 96/96/96 115/115/115
f 96/96/96 116/116/116 115/115/115
f 96/96/96 97/97/97 116/116/116
f 97/97/97 117/117/117 116/116/116
f 97/97/97 98/98/98 117/117/117
f 98/98/98 118/118/118 117/117/117
f 98/98/98 99/99/99 118/118/118
f 99/99/99 119/119/119 118/118/118
f 99/99/99 100/100/100 119/119/119
f 100/100/100 120/120/120 119/119/119
f 100/100/100 81/81/81 120/120/120
f 81/81/81 101/101/101 120/120/120
f 101/101/101 102/102/102 121/121/121
f 102/102/102 122/122/122 121/121/121
f 102/102/102 103/103/103 122/122/122
f 103/103/103 123/123/123 122/122/122
f 103/103/103 104/104/104 123/123/123
f 104/104/104 124/124/124 123/123/123
f 104/104/104 105/105/105 124/124/124
f 105/105/105 125/125/125 124/124/124
f 105/105/105 106/106/106 125/125/125
f 106/106/106 126/126/126 125/125/125
f 106/106/106 107/107/107 126/126/126
f 107/107/107 127/127/127 126/126/126
f 107/107/107 108/108/108 127/127/127
f 108/108/108 128/128/128 127/127/127
f 108/108/108 109/109/109 128/128/128
f 109/109/109 129/129/129 128/128/128
f 109/109/109 110/110/110 129/129/129
f 110/110/110 130/130/130 129/129/129
f 110/110/110 111/111/111 130/130/130
f 111/111/111 131/131/131 130/130/130
f 111/111/111 112/112/112 131/131/131
f 112/112/112 132/132/132 131/131/131
f 112/112/112 113/113/113 132/132/132
f 113/113/113 133/133/133 132/132/132
f 113/113/113 114/114/114 133/133/133
f 114/114/114 134/134/134 133/133/133
f 114/114/114 115/115/115 134/134/134
f 115/115/115 135/135/135 134/134/134
f 115/115/115 116/116/116 135/135/135
f 116/116/116 136/136/136 135/135/135
f 116/116/116 117/117/117 136/136/136
f 117/117/117 137/137/137 136/136/136
f 117/117/117 118/118/118 137/137/137
f 118/118/118 138/138/138 137/137/137
f 118/118/118 119/119/119 138/138/138
f 119/119/119 139/139/139 138/138/138
f 119/119/119 120/120/120 139/139/139
f 120/120/120 140/140/140 139/139/139
f 120/120/120 101/101/101 140/140/140
f 101/101/101 121/121/121 140/140/140
f 121/121/121 122/122/122 141/141/141
f 122/122/122 142/142/142 141/141/141
f 122/122/122 123/123/123 142/142/142
f 123/123/123 143/143/143 142/142/142
f 123/123/123 124/124/124 143/143/143
f 124/124/124 144/144/144 143/143/143
f 124/124/124 125/125/125 144/144/144
f 125/125/125 145/145/145 144/144/144
f 125/125/125 126/126/126 145/145/145
f 126/126/126 146/146/146 145/145/145
f 126/126/126 127/127/127 146/146/146
f 127/127/127 147/147/147 146/146/146
f 127/127/127 128/128/128 147/147/147
f 128/128/128 148/148/148 147/147/147
f 128/128/128 129/129/129 148/148/148
f 129/129/129 149/149/149 148/148/148
f 129/129/129 130/130/130 149/149/149
f 130/130/130 150/150/150 149/149/149
f 130/130/130 131/131/131 150/150/150
f 131/131/131 151/151/151 150/150/150
f 131/131/131 132/132/132 151/151/151
f 132/132/132 152/152/152 151/151/151
f 132/132/132 133/133/133 152/152/152
f 133/133/133 153/153/153 152/152/152
f 133/133/133 134/134/134 153/153/153
f 134/134/134 154/154/154 153/153/153
f 134/134/134 135/135/135 154/154/154
f 135/135/135 155/155/155 154/154/154
f 135/135/135 136/136/136 155/155/155
f 136/136/136 156/156/156 155/155/155
f 136/136/136 137/137/137 156/156/156
f 137/137/137 157/157/157 156/156/156
f 137/137/137 138/138/138 157/157/157
f 138/138/138 158/158/158 157/157/157
f 138/138/138 139/139/139 158/158/158
f 139/139/139 159/159/159 158/158/158
f 139/139/139 140/140/140 159/159/159
f 140/140/140 160/160/160 159/159/159
f 140/140/140 121/121/121 160/160/160
f 121/121/121 141/141/141 160/160/160
f 141/141/141 142/142/142 161/161/161
f 142/142/142 162/162/162 161/161/161
f 142/142/142 143/143/143 162/162/162
f 143/143/143 163/163/163 162/162/162
f 143/143/143 144/144/144 163/163/163
f 144/144/144 164/164/164 163/163/163
f 144/144/144 145/145/145 164/164/164
f 145/145/145 165/165/165 164/164/164
f 145/145/145 146/146/146 165/165/165
f 146/146/146 166/166/166 165/165/165
f 146/146/146 147/147/147 166/166/166
f 147/147/147 167/167/167 166/166/166
f 147/147/147 148/148/148 167/167/167
f 148/148/148 168/168/168 167/167/167
f 148/148/148 149/149/149 168/168/168
f 149/149/149 169/169/169 168/168/168
f 149/149/149 150/150/150 169/169/169
f 150/150/150 170/170/170 169/169/169
f 150/150/150 151/151/151 170/170/170
f 151/151/151 171/171/171 170/170/170
f 151/151/151 152/152/152 171/171/171
f 152/152/152 172/172/172 171/171/171
f 152/152/152 153/153/153 172/172/172
f 153/153/153 173/173/173 172/172/172
f 153/153/153 154/154/154 173/173/173
f 154/154/154 174/174/174 173/173/173
f 154/154/154 155/155/155 174/174/174
f 155/155/155 175/175/175 174/174/174
f 155/155/155 156/156/156 175/175/175
f 156/156/156 176/176/176 175/175/175
f 156/156/156 157/157/157 176/176/176
f 157/157/157 177/177/177 176/176/176
f 157/157/157 158/158/158 177/177/177
f 158/158/158 178/178/178 177/177/177
f 158/158/158 159/159/159 178/178/178
f 159/159/159 179/179/179 178/178/178
f 159/159/159 160/160/160 179/179/179
f 160/160/160 180/180/180 179/179/179
f 160/160/160 141/141/141 180/180/180
f 141/141/141 161/161/161 180/180/180
f 161/161/161 162/162/162 181/181/181
f 162/162/162 182/182/182 181/181/181
f 162/162/162 163/163/163 182/182/182
f 163/163/163 183/183/183 182/182/182
f 163/163/163 164/164/164 183/183/183
f 164/164/164 184/184/184 183/183/183
f 164/164/164 165/165/165 184/184/184
f 165/165/165 185/185/185 184/184/184
f 165/165/165 166/166/166 185/185/185
f 166/166/166 186/186/186 185/185/185
f 166/166/166 167/167/167 186/186/186
f 167/167/167 187/187/187 186/186/186
f 167/167/167 168/168/168 187/187/187
f 168/168/168 188/188/188 187/187/187
f 168/168/168 169/169/169 188/188/188
f 169/169/169 189/189/189 188/188/188
f 169/169/169 170/170/170 189/189/189
f 170/170/170 190/190/190 189/189/189
f 170/170/170 171/171/171 190/190/190
f 171/171/171 191/191/191 190/190/190
f 171/171/171 172/172/172 191/191/191
f 172/172/172 192/192/192 191/191/191
f 172/172/172 173/173/173 192/192/192
f 173/173/173 193/193/193 192/192/192
f 173/173/173 174/174/174 193/193/193
f 174/174/174 194/194/194 193/193/193
f 174/174/174 175/175/175 194/194/194
f 175/175/175 195/195/195 194/194/194
f 175/175/175 176/176/176 195/195/195
f 176/176/176 196/196/196 195/195/195
f 176/176/176 177/177/177 196/196/196
f 177/177/177 197/197/197 196/196/196
f 177/177/177 178/178/178 197/197/197
f 178/178/178 198/198/198 197/197/197
f 178/178/178 179/179/179 198/198/198
f 179/179/179 199/199/199 198/198/198
f 179/179/179 180/180/180 199/199/199
f 180/180/180 200/200/200 199/199/199
f 180/180/180 161/161/161 200/200/200
f 161/161/161 181/181/181 200/200/200
f 181/181/181 182/182/182 201/201/201
f 182/182/182 183/183/183 202/202/202
f 183/183/183 184/184/184 203/203/203
f 184/184/184 185/185/185 204/204/204
f 185/185/185 186/186/186 205/205/205
f 186/186/186 187/187/187 206/206/206
f 187/187/187 188/188/188 207/207/207
f 188/188/188 189/189/189 208/208/208
f 189/189/189 190/190/190 209/209/209
f 190/190/190 191/191/191 210/210/210
f 191/191/191 192/192/192 211/211/211
f 192/192/192 193/193/193 212/212/212
f 193/193/193 194/194/194 213/213/213
f 194/194/194 195/195/195 214/214/214
f 195/195/195 196/196/196 215/215/215
f 196/196/196 197/197/197 216/216/216
f 197/197/197 198/198/198 217/217/217
f 198/198/198 199/199/199 218/218/218
f 199/199/199 200/200/200 219/219/219
f 200/200/200 181/181/181 220/220/220
